<svg xmlns="http://www.w3.org/2000/svg" version="1.1" xmlns:xlink="http://www.w3.org/1999/xlink" xmlns:svgjs="http://svgjs.dev/svgjs" width="1000" height="335" viewBox="0 0 1000 335"><g transform="matrix(1,0,0,1,-0.6060606060606801,0.35316946426144114)"><svg viewBox="0 0 396 133" data-background-color="#161618" preserveAspectRatio="xMidYMid meet" height="335" width="1000" xmlns="http://www.w3.org/2000/svg" xmlns:xlink="http://www.w3.org/1999/xlink"><g id="tight-bounds" transform="matrix(1,0,0,1,0.24000000000003752,-0.14021354849782597)"><svg viewBox="0 0 395.5199999999999 133.28042709699562" height="133.28042709699562" width="395.5199999999999"><g><svg viewBox="0 0 629.4116616861045 212.0961142024518" height="133.28042709699562" width="395.5199999999999"><g transform="matrix(1,0,0,1,0,59.885915495021244)"><svg viewBox="0 0 395.52 92.3242832124093" height="92.3242832124093" width="395.52"><g id="textblocktransform"><svg viewBox="0 0 395.52 92.3242832124093" height="92.3242832124093" width="395.52" id="textblock"><g><svg viewBox="0 0 395.52 92.3242832124093" height="92.3242832124093" width="395.52"><g transform="matrix(1,0,0,1,0,0)"><svg width="395.52" viewBox="1.6 -35.1 199.83 46.650000000000006" height="92.3242832124093" data-palette-color="#ffffff"><path d="M9.7 0.7L9.7 0.7Q7.3 0.7 5.38 0.18 3.45-0.35 1.7-1.3L1.7-1.3 1.7-7.2 3.05-7.2 4.55-4.35Q5.5-2.5 6.73-1.6 7.95-0.7 9.85-0.7L9.85-0.7Q12.2-0.7 13.6-1.73 15-2.75 15-4.5L15-4.5Q15-6.1 13.95-7.1 12.9-8.1 10.2-8.95L10.2-8.95 8-9.65Q5.05-10.55 3.33-12.38 1.6-14.2 1.6-16.95L1.6-16.95Q1.6-19.1 2.75-20.88 3.9-22.65 6.1-23.7 8.3-24.75 11.45-24.75L11.45-24.75Q13.5-24.75 15.23-24.28 16.95-23.8 18.6-22.95L18.6-22.95 18.3-17.6 17-17.6 15.45-20.45Q14.65-22.05 13.83-22.68 13-23.3 11.3-23.3L11.3-23.3Q9.5-23.3 8.13-22.38 6.75-21.45 6.75-19.8L6.75-19.8Q6.75-18.25 7.9-17.28 9.05-16.3 11.6-15.45L11.6-15.45 13.75-14.8Q17.4-13.65 18.95-11.75 20.5-9.85 20.5-7.2L20.5-7.2Q20.5-3.65 17.68-1.48 14.85 0.7 9.7 0.7ZM34.3 0L22.9 0 22.9-1 23.55-1.2Q25.35-1.75 25.35-3.7L25.35-3.7 25.35-29.45Q25.35-30.5 25-31.03 24.65-31.55 23.65-31.8L23.65-31.8 22.9-32 22.9-32.95 31.35-35.1 32.15-34.65 31.95-27.6 31.95-21.2Q33.7-22.65 35.77-23.7 37.85-24.75 40.25-24.75L40.25-24.75Q43.55-24.75 45.42-22.9 47.3-21.05 47.3-17.2L47.3-17.2 47.3-3.65Q47.3-2.65 47.7-2.05 48.1-1.45 49.1-1.15L49.1-1.15 49.55-1 49.55 0 38.15 0 38.15-1 38.75-1.2Q40.55-1.7 40.55-3.7L40.55-3.7 40.55-18.15Q40.55-20.2 39.85-21 39.15-21.8 37.4-21.8L37.4-21.8Q36.2-21.8 34.87-21.35 33.55-20.9 32.1-19.85L32.1-19.85 32.1-3.6Q32.1-2.6 32.5-2 32.9-1.4 33.85-1.15L33.85-1.15 34.3-1 34.3 0ZM64.05 0.7L64.05 0.7Q60.35 0.7 57.57-0.85 54.8-2.4 53.27-5.25 51.75-8.1 51.75-12.05L51.75-12.05Q51.75-16 53.37-18.85 55-21.7 57.77-23.23 60.55-24.75 64.05-24.75L64.05-24.75Q67.55-24.75 70.32-23.23 73.09-21.7 74.72-18.88 76.34-16.05 76.34-12.05L76.34-12.05Q76.34-8.1 74.82-5.23 73.3-2.35 70.55-0.83 67.8 0.7 64.05 0.7ZM64.05-0.7L64.05-0.7Q65.84-0.7 66.97-1.68 68.09-2.65 68.59-5.1 69.09-7.55 69.09-11.95L69.09-11.95Q69.09-16.4 68.59-18.88 68.09-21.35 66.97-22.33 65.84-23.3 64.05-23.3L64.05-23.3Q62.25-23.3 61.15-22.33 60.05-21.35 59.52-18.88 59-16.4 59-11.95L59-11.95Q59-7.55 59.52-5.1 60.05-2.65 61.15-1.68 62.25-0.7 64.05-0.7ZM90.44 11.55L78.64 11.55 78.64 10.6 79.29 10.4Q80.29 10.15 80.69 9.58 81.09 9 81.09 7.95L81.09 7.95Q81.09 5.9 81.12 4.08 81.14 2.25 81.14 0.55L81.14 0.55 81.14-13.2Q81.14-14.75 81.14-15.88 81.14-17 81.09-18.4L81.09-18.4Q81.09-19.45 80.74-20.03 80.39-20.6 79.39-20.8L79.39-20.8 78.64-20.95 78.64-21.85 86.69-24.75 87.29-24.25 87.74-22.4Q91.19-24.75 95.54-24.75L95.54-24.75Q99.79-24.75 102.37-21.55 104.94-18.35 104.94-12.1L104.94-12.1Q104.94-6.05 102.12-2.68 99.29 0.7 94.44 0.7L94.44 0.7Q92.49 0.7 90.77 0.35 89.04 0 87.69-0.7L87.69-0.7 87.69 0.8Q87.69 2.3 87.72 4.05 87.74 5.8 87.74 7.85L87.74 7.85Q87.74 9.85 89.49 10.35L89.49 10.35 90.44 10.6 90.44 11.55ZM92.09-1.3L92.09-1.3Q94.74-1.3 96.27-3.68 97.79-6.05 97.79-11.9L97.79-11.9Q97.79-17.7 96.34-20.03 94.89-22.35 92.24-22.35L92.24-22.35Q91.29-22.35 90.19-22.05 89.09-21.75 87.84-21.05L87.84-21.05 87.84-2.15Q89.84-1.3 92.09-1.3ZM132.74 0L107.19 0 107.19-1 124.64-31.55 115.34-31.55Q113.79-31.55 112.84-30.8 111.89-30.05 111.19-28.7L111.19-28.7 109.09-24.75 107.74-24.75 108.09-33.05 132.44-33.05 132.44-32.05 114.99-1.5 125.64-1.5Q127.19-1.5 128.09-2.27 128.99-3.05 129.69-4.45L129.69-4.45 131.74-8.3 133.09-8.3 132.74 0ZM140.99-27.5L140.99-27.5Q139.34-27.5 138.19-28.55 137.04-29.6 137.04-31.2L137.04-31.2Q137.04-32.85 138.19-33.88 139.34-34.9 140.99-34.9L140.99-34.9Q142.64-34.9 143.79-33.88 144.94-32.85 144.94-31.2L144.94-31.2Q144.94-29.6 143.79-28.55 142.64-27.5 140.99-27.5ZM146.69 0L135.24 0 135.24-0.95 135.99-1.15Q136.99-1.45 137.34-2.05 137.69-2.65 137.74-3.65L137.74-3.65 137.74-12.85Q137.74-14.4 137.74-15.73 137.74-17.05 137.69-18.45L137.69-18.45Q137.69-19.45 137.31-20.03 136.94-20.6 135.94-20.8L135.94-20.8 135.24-20.95 135.24-21.85 143.99-24.75 144.59-24.2 144.44-17.1 144.44-3.6Q144.44-2.6 144.81-2 145.19-1.4 146.14-1.1L146.14-1.1 146.69-0.95 146.69 0ZM160.63 0L148.98 0 148.98-0.95 149.73-1.15Q151.38-1.7 151.38-3.65L151.38-3.65Q151.38-5.35 151.41-7.08 151.43-8.8 151.43-10.5L151.43-10.5 151.43-29.5Q151.43-30.55 151.08-31.08 150.73-31.6 149.73-31.85L149.73-31.85 148.98-32.05 148.98-33 157.73-35.1 158.38-34.65 158.18-27.6 158.18-3.65Q158.23-2.65 158.61-2.02 158.98-1.4 159.93-1.15L159.93-1.15 160.63-0.95 160.63 0ZM174.63 0L162.98 0 162.98-0.95 163.73-1.15Q165.38-1.7 165.38-3.65L165.38-3.65Q165.38-5.35 165.41-7.08 165.43-8.8 165.43-10.5L165.43-10.5 165.43-29.5Q165.43-30.55 165.08-31.08 164.73-31.6 163.73-31.85L163.73-31.85 162.98-32.05 162.98-33 171.73-35.1 172.38-34.65 172.18-27.6 172.18-3.65Q172.23-2.65 172.61-2.02 172.98-1.4 173.93-1.15L173.93-1.15 174.63-0.95 174.63 0ZM184.13 0.7L184.13 0.7Q181.28 0.7 179.3-0.93 177.33-2.55 177.33-5.6L177.33-5.6Q177.33-8 179.65-10.03 181.98-12.05 186.98-13L186.98-13Q187.83-13.2 188.95-13.38 190.08-13.55 191.18-13.75L191.18-13.75 191.18-17.3Q191.18-20.7 190.33-22 189.48-23.3 187.63-23.3L187.63-23.3 187.48-23.3Q186.33-23.3 185.65-22.58 184.98-21.85 184.78-20.2L184.78-20.2 184.63-19.55Q184.48-17.55 183.58-16.63 182.68-15.7 181.33-15.7L181.33-15.7Q180.08-15.7 179.25-16.48 178.43-17.25 178.43-18.5L178.43-18.5Q178.43-20.55 179.83-21.95 181.23-23.35 183.55-24.05 185.88-24.75 188.58-24.75L188.58-24.75Q193.03-24.75 195.38-22.6 197.73-20.45 197.73-15.6L197.73-15.6 197.73-4.45Q197.73-2.3 199.78-2.3L199.78-2.3 200.93-2.3 201.43-1.75Q200.53-0.6 199.43 0.03 198.33 0.65 196.43 0.65L196.43 0.65Q194.28 0.65 193-0.38 191.73-1.4 191.33-3.1L191.33-3.1Q189.73-1.4 188.18-0.35 186.63 0.7 184.13 0.7ZM187.03-2.5L187.03-2.5Q188.03-2.5 188.93-2.95 189.83-3.4 191.18-4.45L191.18-4.45 191.18-12.45Q189.88-12.25 188.53-11.95L188.53-11.95Q186.38-11.45 185.05-10.1 183.73-8.75 183.73-6.45L183.73-6.45Q183.73-4.45 184.65-3.48 185.58-2.5 187.03-2.5Z" opacity="1" transform="matrix(1,0,0,1,0,0)" fill="#ffffff" class="undefined-text-0" data-fill-palette-color="primary" id="text-0"></path></svg></g></svg></g></svg></g></svg></g><g transform="matrix(1,0,0,1,417.3155474836527,0)"><svg viewBox="0 0 212.0961142024518 212.0961142024518" height="212.0961142024518" width="212.0961142024518"><g><svg></svg></g><g id="icon-0"><svg viewBox="0 0 212.0961142024518 212.0961142024518" height="212.0961142024518" width="212.0961142024518"><g><rect width="192.85035569148857" height="192.85035569148857" x="9.622879255481607" y="9.622879255481607" fill="#ffffff" data-fill-palette-color="accent"></rect><rect width="192.85035569148857" height="192.85035569148857" x="-1.7763568394002505e-15" y="-1.7763568394002505e-15" fill="#ffffff" opacity="0.5" data-fill-palette-color="accent"></rect></g><g transform="matrix(1,0,0,1,45.26424664988937,27.493940729947454)"><svg viewBox="0 0 121.56762090267304 157.10823274255688" height="157.10823274255688" width="121.56762090267304"><g><svg xmlns="http://www.w3.org/2000/svg" xmlns:xlink="http://www.w3.org/1999/xlink" version="1.1" x="0" y="0" viewBox="12.983 1 75.68599999999999 97.813" enable-background="new 0 0 100 100" xml:space="preserve" height="157.10823274255688" width="121.56762090267304" class="icon-g$-0" data-fill-palette-color="background" id="g$-0"><g fill="#161618" data-fill-palette-color="background"><polygon fill-rule="evenodd" clip-rule="evenodd" points="12.983,10.59 30.001,98.813 24.129,39.764 53.15,37.872 53.096,27.989    64.549,1 53.622,18.977  " fill="#161618" data-fill-palette-color="background"></polygon><polygon fill-rule="evenodd" clip-rule="evenodd" points="59.389,54.548 64.549,1.007 55.809,40.723 36.197,41.768 37.767,62.23    30.001,98.813 42.058,58.914  " fill="#161618" data-fill-palette-color="background"></polygon><polygon fill-rule="evenodd" clip-rule="evenodd" points="62.8,67.182 63.349,56.729 47.37,60.484 47.338,72.281 30.001,98.813    51.681,71.197  " fill="#161618" data-fill-palette-color="background"></polygon><polygon fill-rule="evenodd" clip-rule="evenodd" points="65.711,62.394 80.552,57.663 82.061,45.131 66.162,47.226  " fill="#161618" data-fill-palette-color="background"></polygon><polygon fill-rule="evenodd" clip-rule="evenodd" points="72.07,44.502 83.058,43.085 84.639,32.807 76.56,32.434 64.549,1    72.979,31.967  " fill="#161618" data-fill-palette-color="background"></polygon><polygon fill-rule="evenodd" clip-rule="evenodd" points="87.413,31.294 88.669,21.788 79.125,19.094 64.549,1 79.032,23.437    78.61,30.437  " fill="#161618" data-fill-palette-color="background"></polygon></g></svg></g></svg></g></svg></g></svg></g></svg></g><defs></defs></svg><rect width="395.5199999999999" height="133.28042709699562" fill="none" stroke="none" visibility="hidden"></rect></g></svg></g></svg>